<svg width="256" height="256" viewBox="0 0 256 256" fill="none" xmlns="http://www.w3.org/2000/svg">
<rect width="256" height="256" fill="white"/>
<path d="M68.16 171.12C66.72 171.12 65.28 170.88 63.84 170.4C62.32 170 61.08 169.2 60.12 168C59.08 166.88 58.56 165.32 58.56 163.32C58.56 162.2 59 160.96 59.88 159.6C60.68 158.16 61.68 157.44 62.88 157.44C62.24 158.4 61.92 159.56 61.92 160.92C61.92 162.36 62.52 163.56 63.72 164.52C64.92 165.56 66.84 166.08 69.48 166.08C72.52 166.08 75.72 165.2 79.08 163.44C82.44 161.76 85.84 159.52 89.28 156.72C92.72 153.84 96.08 150.68 99.36 147.24C102.64 143.8 105.68 140.32 108.48 136.8C111.68 132.8 114.92 128.88 118.2 125.04C121.48 121.2 124.64 117.76 127.68 114.72C130.8 111.6 133.56 109.2 135.96 107.52C136.76 106.96 138.08 106.04 139.92 104.76C141.84 103.48 144.28 102.32 147.24 101.28C144.28 101.36 141.16 101.32 137.88 101.16C134.68 100.92 131.56 100.6 128.52 100.2C126.84 99.96 125.12 99.76 123.36 99.6C121.6 99.44 119.8 99.36 117.96 99.36C113.08 99.36 108.48 100 104.16 101.28C99.84 102.56 96.52 104.8 94.2 108C92.84 109.92 92.16 111.8 92.16 113.64C92.16 114.92 92.44 115.96 93 116.76C93.32 117.08 93.68 117.44 94.08 117.84C94.48 118.16 94.8 118.32 95.04 118.32C94.72 118.64 94.32 118.8 93.84 118.8C93.28 118.8 92.72 118.68 92.16 118.44C91.68 118.12 91.28 117.8 90.96 117.48C90.16 116.6 89.56 115.6 89.16 114.48C88.76 113.28 88.56 112.12 88.56 111C88.56 108.76 89.12 106.88 90.24 105.36C92.48 102.32 95.36 100.08 98.88 98.64C102.4 97.2 106.84 96.48 112.2 96.48C114.52 96.48 117.04 96.64 119.76 96.96C122.48 97.2 125.44 97.56 128.64 98.04C135.36 99.16 141.76 99.72 147.84 99.72C150.88 99.72 153.48 99.56 155.64 99.24C157.8 98.84 159.16 98.24 159.72 97.44C160.6 97.44 160.88 97.8 160.56 98.52C160.32 99.56 159.8 100.2 159 100.44C158.2 100.68 157.32 101 156.36 101.4C154.52 102.04 152.44 103.56 150.12 105.96C147.8 108.36 145.4 111.32 142.92 114.84C140.52 118.36 138.12 122.12 135.72 126.12C133.32 130.04 131.08 133.92 129 137.76C126.92 141.52 125.12 144.88 123.6 147.84C122.8 149.36 121.8 151.12 120.6 153.12C119.4 155.12 118.08 156.96 116.64 158.64C118.88 156.96 121.52 154.6 124.56 151.56C127.6 148.52 130.76 145.08 134.04 141.24C137.4 137.4 140.64 133.52 143.76 129.6C146.72 125.76 150.04 121.68 153.72 117.36C157.4 113.04 161.16 108.92 165 105C168.92 101.08 172.76 97.84 176.52 95.28C180.36 92.64 183.88 91.12 187.08 90.72C187.48 90.64 187.8 90.6 188.04 90.6C188.36 90.6 188.68 90.6 189 90.6C191.32 90.6 193.16 91.16 194.52 92.28C195.96 93.32 196.72 95.08 196.8 97.56C196.8 98.44 196.56 99.4 196.08 100.44C195.6 101.48 194.84 102.16 193.8 102.48C194.12 102.08 194.32 101.48 194.4 100.68C194.56 99.88 194.68 99.2 194.76 98.64C194.68 97.28 194.04 96.2 192.84 95.4C191.72 94.52 190 94.08 187.68 94.08C184.48 94.08 181 95.28 177.24 97.68C173.56 100.08 169.8 103.16 165.96 106.92C162.2 110.68 158.52 114.68 154.92 118.92C151.4 123.16 148.2 127.12 145.32 130.8C142.28 134.72 138.96 138.84 135.36 143.16C131.76 147.4 128.28 151.24 124.92 154.68C121.56 158.12 118.64 160.68 116.16 162.36C115.68 162.68 114.96 163 114 163.32C113.04 163.64 112.08 163.8 111.12 163.8C110.32 163.8 109.56 163.56 108.84 163.08C108.12 162.68 107.68 161.96 107.52 160.92C107.68 161 107.96 161.08 108.36 161.16C108.76 161.24 109.2 161.28 109.68 161.28C110.56 161.28 111.56 160.96 112.68 160.32C113.8 159.68 114.76 158.24 115.56 156C117.32 151.44 119.28 146.68 121.44 141.72C123.68 136.68 126.24 131.72 129.12 126.84C132 121.88 135.32 117.24 139.08 112.92C142.92 108.52 147.28 104.64 152.16 101.28C151.44 101.28 150.68 101.4 149.88 101.64C149.08 101.8 148.68 101.88 148.68 101.88C146.44 102.68 144.12 103.84 141.72 105.36C139.4 106.8 137.4 108.24 135.72 109.68C133.56 111.52 131.04 114 128.16 117.12C125.28 120.16 122.28 123.52 119.16 127.2C116.04 130.8 113 134.48 110.04 138.24C107.08 142 103.96 145.8 100.68 149.64C97.48 153.48 94.12 157.04 90.6 160.32C87.08 163.52 83.44 166.12 79.68 168.12C76 170.12 72.16 171.12 68.16 171.12Z" fill="#C4BEAE"/>
</svg>
