<svg width="338" height="136" viewBox="0 0 338 136" fill="none" xmlns="http://www.w3.org/2000/svg">
<path d="M113.002 63.8594V60.5684C113.002 59.8652 112.995 59.2174 112.982 58.625C112.976 58.026 112.96 57.5345 112.934 57.1504C112.914 56.7598 112.885 56.5319 112.846 56.4668L111.312 56.1055L111.371 54.9629H116.146L116.215 56.1055L114.789 56.4668C114.763 56.5319 114.737 56.7565 114.711 57.1406C114.691 57.5182 114.675 58.0065 114.662 58.6055C114.649 59.1979 114.643 59.8522 114.643 60.5684V64.6895C114.643 65.3991 114.639 66.0208 114.633 66.5547C114.633 67.0885 114.633 67.6061 114.633 68.1074H113.256L104.252 57.8438H105.502V62.1504C105.502 63.3353 105.515 64.3281 105.541 65.1289C105.567 65.9297 105.606 66.3952 105.658 66.5254L107.23 66.877L107.152 68H102.289L102.23 66.877L103.637 66.5254C103.663 66.4342 103.686 66.1836 103.705 65.7734C103.731 65.3568 103.751 64.8327 103.764 64.2012C103.783 63.5697 103.793 62.8861 103.793 62.1504V59.25C103.793 58.8984 103.783 58.5273 103.764 58.1367C103.744 57.7461 103.721 57.3945 103.695 57.082C103.676 56.7695 103.656 56.5645 103.637 56.4668L102.23 56.1055L102.289 54.9629H105.854L113.939 63.8594H113.002ZM125.443 68.1855C124.082 68.1855 122.868 67.9089 121.8 67.3555C120.733 66.7956 119.893 66.0273 119.281 65.0508C118.675 64.0677 118.373 62.9414 118.373 61.6719C118.373 60.6823 118.548 59.7676 118.9 58.9277C119.252 58.0879 119.743 57.3587 120.375 56.7402C121.013 56.1152 121.761 55.6335 122.621 55.2949C123.48 54.9499 124.421 54.7773 125.443 54.7773C126.771 54.7773 127.946 55.054 128.968 55.6074C129.99 56.1608 130.788 56.929 131.361 57.9121C131.94 58.8952 132.23 60.028 132.23 61.3105C132.23 62.4694 132.018 63.4785 131.595 64.3379C131.172 65.1973 130.619 65.9134 129.935 66.4863C129.258 67.0527 128.522 67.4792 127.728 67.7656C126.94 68.0456 126.179 68.1855 125.443 68.1855ZM125.619 66.5254C126.628 66.5254 127.383 66.125 127.884 65.3242C128.386 64.5169 128.636 63.3678 128.636 61.877C128.636 60.7441 128.493 59.7578 128.207 58.918C127.927 58.0781 127.526 57.4303 127.005 56.9746C126.491 56.5124 125.886 56.2812 125.189 56.2812C124.206 56.2812 123.428 56.7012 122.855 57.541C122.282 58.3743 121.996 59.5299 121.996 61.0078C121.996 62.0885 122.149 63.0456 122.455 63.8789C122.761 64.7057 123.187 65.3535 123.734 65.8223C124.281 66.291 124.909 66.5254 125.619 66.5254ZM139.788 68.0488L134.622 56.4668L133.499 56.0762L133.558 54.9629H139.476L139.554 56.1055L138.157 56.4668L141.82 64.9922H140.911L144.232 56.4668L142.689 56.1055L142.747 54.9629H147.337L147.435 56.0762L146.273 56.4668L141.009 68.0488H139.788ZM147.718 68L147.688 66.877L148.792 66.5254L153.313 55.627L155.218 54.5723L160.335 66.5254L161.497 66.877L161.419 68H155.345L155.276 66.877L156.702 66.5254L155.511 63.6934L155.276 62.9414L153.079 57.7363L153.723 57.9707L151.927 62.8633L151.721 63.5273L150.677 66.5254L152.112 66.877L152.054 68H147.718ZM151.165 64.2695V62.7363C151.458 62.7428 151.793 62.7591 152.171 62.7852C152.548 62.8112 153.037 62.8242 153.636 62.8242C154.228 62.8242 154.72 62.8112 155.11 62.7852C155.501 62.7591 155.836 62.7428 156.116 62.7363V64.2402C155.856 64.2402 155.53 64.2337 155.139 64.2207C154.755 64.2077 154.254 64.2012 153.636 64.2012C153.017 64.2012 152.516 64.2109 152.132 64.2305C151.754 64.2435 151.432 64.2565 151.165 64.2695Z" fill="#C4BEAE"/>
<path d="M9.59945 111.12C8.15945 111.12 6.71945 110.88 5.27945 110.4C3.75945 110 2.51945 109.2 1.55945 108C0.519453 106.88 -0.000546932 105.32 -0.000546932 103.32C-0.000546932 102.2 0.439453 100.96 1.31945 99.6C2.11945 98.16 3.11945 97.44 4.31945 97.44C3.67945 98.4 3.35945 99.56 3.35945 100.92C3.35945 102.36 3.95945 103.56 5.15945 104.52C6.35945 105.56 8.27945 106.08 10.9195 106.08C13.9595 106.08 17.1595 105.2 20.5195 103.44C23.8795 101.76 27.2795 99.52 30.7195 96.72C34.1595 93.84 37.5195 90.68 40.7995 87.24C44.0795 83.8 47.1195 80.32 49.9195 76.8C53.1195 72.8 56.3595 68.88 59.6395 65.04C62.9195 61.2 66.0795 57.76 69.1195 54.72C72.2395 51.6 74.9995 49.2 77.3995 47.52C78.1995 46.96 79.5195 46.04 81.3595 44.76C83.2795 43.48 85.7195 42.32 88.6795 41.28C85.7195 41.36 82.5995 41.32 79.3195 41.16C76.1195 40.92 72.9995 40.6 69.9595 40.2C68.2795 39.96 66.5595 39.76 64.7995 39.6C63.0395 39.44 61.2395 39.36 59.3995 39.36C54.5195 39.36 49.9195 40 45.5995 41.28C41.2795 42.56 37.9595 44.8 35.6395 48C34.2795 49.92 33.5995 51.8 33.5995 53.64C33.5995 54.92 33.8795 55.96 34.4395 56.76C34.7595 57.08 35.1195 57.44 35.5195 57.84C35.9195 58.16 36.2395 58.32 36.4795 58.32C36.1595 58.64 35.7595 58.8 35.2795 58.8C34.7195 58.8 34.1595 58.68 33.5995 58.44C33.1195 58.12 32.7195 57.8 32.3995 57.48C31.5995 56.6 30.9995 55.6 30.5995 54.48C30.1995 53.28 29.9995 52.12 29.9995 51C29.9995 48.76 30.5595 46.88 31.6795 45.36C33.9195 42.32 36.7995 40.08 40.3195 38.64C43.8395 37.2 48.2795 36.48 53.6395 36.48C55.9595 36.48 58.4795 36.64 61.1995 36.96C63.9195 37.2 66.8795 37.56 70.0795 38.04C76.7995 39.16 83.1995 39.72 89.2795 39.72C92.3195 39.72 94.9195 39.56 97.0795 39.24C99.2395 38.84 100.599 38.24 101.159 37.44C102.039 37.44 102.319 37.8 101.999 38.52C101.759 39.56 101.239 40.2 100.439 40.44C99.6395 40.68 98.7595 41 97.7995 41.4C95.9595 42.04 93.8795 43.56 91.5595 45.96C89.2395 48.36 86.8395 51.32 84.3595 54.84C81.9595 58.36 79.5595 62.12 77.1595 66.12C74.7595 70.04 72.5195 73.92 70.4395 77.76C68.3595 81.52 66.5595 84.88 65.0395 87.84C64.2395 89.36 63.2395 91.12 62.0395 93.12C60.8395 95.12 59.5195 96.96 58.0795 98.64C60.3195 96.96 62.9595 94.6 65.9995 91.56C69.0395 88.52 72.1995 85.08 75.4795 81.24C78.8395 77.4 82.0795 73.52 85.1995 69.6C88.1595 65.76 91.4795 61.68 95.1595 57.36C98.8395 53.04 102.599 48.92 106.439 45C110.359 41.08 114.199 37.84 117.959 35.28C121.799 32.64 125.319 31.12 128.519 30.72C128.919 30.64 129.239 30.6 129.479 30.6C129.799 30.6 130.119 30.6 130.439 30.6C132.759 30.6 134.599 31.16 135.959 32.28C137.399 33.32 138.159 35.08 138.239 37.56C138.239 38.44 137.999 39.4 137.519 40.44C137.039 41.48 136.279 42.16 135.239 42.48C135.559 42.08 135.759 41.48 135.839 40.68C135.999 39.88 136.119 39.2 136.199 38.64C136.119 37.28 135.479 36.2 134.279 35.4C133.159 34.52 131.439 34.08 129.119 34.08C125.919 34.08 122.439 35.28 118.679 37.68C114.999 40.08 111.239 43.16 107.399 46.92C103.639 50.68 99.9595 54.68 96.3595 58.92C92.8395 63.16 89.6395 67.12 86.7595 70.8C83.7195 74.72 80.3995 78.84 76.7995 83.16C73.1995 87.4 69.7195 91.24 66.3595 94.68C62.9995 98.12 60.0795 100.68 57.5995 102.36C57.1195 102.68 56.3995 103 55.4395 103.32C54.4795 103.64 53.5195 103.8 52.5595 103.8C51.7595 103.8 50.9995 103.56 50.2795 103.08C49.5595 102.68 49.1195 101.96 48.9595 100.92C49.1195 101 49.3995 101.08 49.7995 101.16C50.1995 101.24 50.6395 101.28 51.1195 101.28C51.9995 101.28 52.9995 100.96 54.1195 100.32C55.2395 99.68 56.1995 98.24 56.9995 96C58.7595 91.44 60.7195 86.68 62.8795 81.72C65.1195 76.68 67.6795 71.72 70.5595 66.84C73.4395 61.88 76.7595 57.24 80.5195 52.92C84.3595 48.52 88.7195 44.64 93.5995 41.28C92.8795 41.28 92.1195 41.4 91.3195 41.64C90.5195 41.8 90.1195 41.88 90.1195 41.88C87.8795 42.68 85.5595 43.84 83.1595 45.36C80.8395 46.8 78.8395 48.24 77.1595 49.68C74.9995 51.52 72.4795 54 69.5995 57.12C66.7195 60.16 63.7195 63.52 60.5995 67.2C57.4795 70.8 54.4395 74.48 51.4795 78.24C48.5195 82 45.3995 85.8 42.1195 89.64C38.9195 93.48 35.5595 97.04 32.0395 100.32C28.5195 103.52 24.8795 106.12 21.1195 108.12C17.4395 110.12 13.5995 111.12 9.59945 111.12Z" fill="#C4BEAE"/>
</svg>
